# xmcd
#
# Track frame offsets:
#	150
#	13434
#	36704
#	49119
#	65196
#	78661
#	89589
#	110217
#	124738
#	135262
#	146782
#	159487
#	174660
#	188464
#	221117
#
# Disc length: 3153 seconds
#
# Revision: 2
# Processed by: cddbd v1.5.2PL0 Copyright (c) Steve Scherf et al.
# Submitted via: EZCDAudioConverter 7.0.0.1
#
DISCID=eb0c4f0f
DTITLE=Compact Disc Club - The Blues Story
DYEAR=2000
DGENRE=Blues
TTITLE0=Muddy Waters - Mannish Boy
TTITLE1=B.B. King - Let The Good Times Roll
TTITLE2=The Blues Project - No Time Like The Right Time
TTITLE3=John Mayall And The Bluesbreakers - All Your Love
TTITLE4=Eric Burdon - Good Times
TTITLE5=T-Bone Walker - Stormy Monday Blues
TTITLE6=Big Bill Broonzy - When The Sun Goes Down
TTITLE7=Champion Jack Dupree - Georgiana
TTITLE8=Buddy Guy - First Time I Met The Blues
TTITLE9=John Lee Hooker - Boom Boom
TTITLE10=Howlin' Wolf - Back Door Man
TTITLE11=Roy Buchanan - My Baby Says She's Gonna Leave
TTITLE12=Willie Dixon - Walin' The Blues
TTITLE13=The Robert Cray Band - I Was Warned
TTITLE14=The Taste - Blister On The Moon
EXTD=
EXTT0=
EXTT1=
EXTT2=
EXTT3=
EXTT4=
EXTT5=
EXTT6=
EXTT7=
EXTT8=
EXTT9=
EXTT10=
EXTT11=
EXTT12=
EXTT13=
EXTT14=
PLAYORDER=
